# xmcd
#
# Track frame offsets:
#	150
#	14929
#	27984
#	44052
#	56446
#	69894
#	84276
#	94386
#	108175
#	123820
#	135227
#	147453
#
# Disc length: 2126 seconds
#
# Revision: 0
# Processed by: cddbd v1.5.1PL0 Copyright (c) Steve Scherf et al.
# Submitted via: EasyCDDAExtractor 7.5.2.1
#
DISCID=a1084c0c
DTITLE=Dilermando Reis - Gotas De Lagrimas
DYEAR=1900
DGENRE=Country
TTITLE0=Gotas De Lagrimas
TTITLE1=Brejeiro
TTITLE2=Volve Volve
TTITLE3=La Cumparsita
TTITLE4=Rapsodia Infantil
TTITLE5=Nossa Ternura
TTITLE6=Caterete Mineiro
TTITLE7=Cisne Branco
TTITLE8=Eterna Saudade
TTITLE9=Interrogando
TTITLE10=Gauchinha
TTITLE11=Suspiro Da Nega
EXTD=
EXTT0=
EXTT1=
EXTT2=
EXTT3=
EXTT4=
EXTT5=
EXTT6=
EXTT7=
EXTT8=
EXTT9=
EXTT10=
EXTT11=
PLAYORDER=
